
        <svg xmlns="http://www.w3.org/2000/svg" xmlns:xlink="http://www.w3.org/1999/xlink" version="1.1" width="3161.9631901840494" 
        height="576.7116772656193" viewBox="0 0 3161.9631901840494 576.7116772656193">
			<rect fill="#fcfcfc" width="3161.9631901840494" height="576.7116772656193"/>
			<g transform="scale(8.098159509202455) translate(10, 10)">
				<defs id="SvgjsDefs3170"></defs><g id="SvgjsG3171" featureKey="LwVBM5-0" transform="matrix(0.8838285689154128,0,0,0.8838285689154128,-4.419142844577064,-18.31628193508673)" fill="#111111"><g xmlns="http://www.w3.org/2000/svg"><path fill="none" d="M54.305,70.684h-8.607c-0.376,0-0.681,0.305-0.681,0.68s0.305,0.68,0.681,0.68h8.607   c0.375,0,0.68-0.305,0.68-0.68S54.68,70.684,54.305,70.684z"></path><path fill="none" d="M59.675,29.708v36.569h0.175h24.183h0.001V29.708H59.85H59.675z M64.566,32.216h14.225v4.121H64.566V32.216z    M64.566,39h14.225v8.242H64.566V39z M64.566,48.961h7.111v1.551h-7.111V48.961z M64.566,52.184h14.225v1.549H64.566V52.184z    M64.566,55.406h14.225v1.55H64.566V55.406z M64.566,58.63h14.225v1.55H64.566V58.63z"></path><circle fill="none" cx="50" cy="27.993" r="0.68"></circle><path d="M86.629,69.109c0.109-0.227,0.178-0.479,0.178-0.748V28.107c0-0.953-0.772-1.726-1.727-1.726H14.92   c-0.952,0-1.726,0.772-1.726,1.726v40.254c0,0.27,0.067,0.521,0.177,0.748H5v2.783c0,0.953,0.772,1.726,1.726,1.726h86.549   c0.953,0,1.726-0.772,1.726-1.726v-2.783H86.629z M50,27.313c0.376,0,0.68,0.304,0.68,0.68s-0.304,0.681-0.68,0.681   s-0.68-0.305-0.68-0.681S49.624,27.313,50,27.313z M52.975,50.714v1.224H25.213v-1.224H52.975z M45.052,49.877H25.213v-1.224   h19.839V49.877z M37.878,46.637v1.223v0.001H25.213V47.86v-1.223v-0.001L37.878,46.637L37.878,46.637z M20.866,32.17h3.488v1.224   h-3.488V32.17z M20.866,34.23h8.693v1.224h-8.693V34.23z M20.866,36.291h11.593v1.224H20.866V36.291z M20.866,38.352h8.693v1.224   h-8.693V38.352z M20.866,40.411h8.693v1.224h-8.693V40.411z M20.866,42.472h3.488v1.224h-3.488V42.472z M20.866,44.532h5.831v1.224   h-5.831V44.532z M20.866,46.637h3.488v1.224h-3.488V46.637z M20.866,48.653h3.488v1.224h-3.488V48.653z M20.866,50.714h3.488v1.224   h-3.488V50.714z M20.866,52.773h27.791v1.224H20.866V52.773z M48.657,54.834v1.225H25.213v-1.225H48.657z M20.866,54.834h3.488   v1.225h-3.488V54.834z M20.03,64.3L20.03,64.3h-1.058h-0.001v-1.224h0.001h1.057h0.001V64.3z M20.03,62.24h-1.058v-0.002h-0.001   v-1.225h1.058v0.002h0.001V62.24z M20.03,60.178L20.03,60.178h-1.058h-0.001v-1.223h0.001h1.057h0.001V60.178z M20.03,58.119   h-1.058v-0.001h-0.001v-1.224h0.001h1.057h0.001V58.119z M20.03,56.059L20.03,56.059h-1.058h-0.001v-1.225h0.001h1.057h0.001   V56.059z M20.03,53.997L20.03,53.997h-1.058h-0.001v-1.224h0.001h1.057h0.001V53.997z M20.03,51.938L20.03,51.938h-1.058h-0.001   v-1.224h0.001h1.057h0.001V51.938z M20.03,49.877L20.03,49.877h-1.058h-0.001v-1.224h0.001h1.057h0.001V49.877z M20.03,47.817   h-1.058v-0.001h-0.001v-1.224h1.058v0.001h0.001V47.817z M20.03,45.756L20.03,45.756h-1.058h-0.001v-1.224h0.001h1.057h0.001   V45.756z M20.03,43.696h-1.058v-0.001h-0.001v-1.224h1.058v0.001h0.001V43.696z M20.03,41.635L20.03,41.635h-1.058h-0.001v-1.224   h0.001h1.057h0.001V41.635z M20.03,39.576h-1.058v-0.001h-0.001v-1.224h1.058v0.001h0.001V39.576z M20.03,37.515L20.03,37.515   h-1.058h-0.001v-1.224h0.001h1.057h0.001V37.515z M20.03,35.454L20.03,35.454h-1.058h-0.001V34.23h0.001h1.057h0.001V35.454z    M20.03,33.394L20.03,33.394h-1.058h-0.001V32.17h0.001h1.057h0.001V33.394z M26.697,64.3h-5.831v-1.224h5.831V64.3z    M27.999,61.016v1.223v0.002h-7.133v-0.002v-1.223v-0.002h7.133V61.016z M35.133,60.178H20.866v-1.223h14.267V60.178z    M37.878,58.118L37.878,58.118l-17.012,0.001v-0.001v-1.224h17.012V58.118z M54.305,72.043h-8.607c-0.376,0-0.681-0.305-0.681-0.68   s0.305-0.68,0.681-0.68h8.607c0.375,0,0.68,0.305,0.68,0.68S54.68,72.043,54.305,72.043z M57.3,51.938h-3.487v-1.224H57.3V51.938z    M84.033,66.277L84.033,66.277H59.85h-0.175V29.708h0.175h24.184V66.277z"></path><rect x="64.566" y="48.961" width="7.111" height="1.551"></rect><rect x="64.566" y="52.184" width="14.225" height="1.549"></rect><rect x="64.566" y="55.406" width="14.225" height="1.55"></rect><rect x="64.566" y="58.63" width="14.225" height="1.55"></rect><rect x="64.566" y="39" width="14.225" height="8.242"></rect><rect x="64.566" y="32.216" width="14.225" height="4.121"></rect></g></g><g id="SvgjsG3172" featureKey="YhTCwJ-0" transform="matrix(2.35259696945383,0,0,2.35259696945383,98.96485775972646,-11.480673480168047)" fill="#111111"><path d="M4.34 10.4 q2.24 0.02 3.18 1.7 l-1.3 0.86 q-0.68 -1.12 -1.98 -1.12 q-0.78 0 -1.31 0.36 t-0.53 0.94 q0 0.94 2.34 1.36 q1.68 0.3 2.38 0.98 t0.7 1.82 q0 1.38 -1.02 2.16 t-2.72 0.78 q-1.32 0 -2.17 -0.42 t-1.47 -1.32 l1.24 -0.96 q0.58 0.7 1.14 0.98 t1.26 0.28 q0.9 0 1.48 -0.39 t0.58 -1.05 q0 -0.68 -0.61 -1.02 t-2.03 -0.62 q-1.4 -0.3 -2.03 -0.9 t-0.63 -1.66 q0 -1.18 0.97 -1.96 t2.53 -0.8 z M12.36 7.98 l0 2.66 l2.76 0 l0 1.32 l-2.76 0 l0 5 q0 1.12 0.36 1.48 t1.04 0.36 q0.78 0 1.38 -0.32 l0.06 1.42 q-0.8 0.34 -1.82 0.34 q-1.44 0 -2.01 -0.71 t-0.57 -2.33 l0 -5.24 l-2.04 0 l0 -1.32 l2.04 0 l0 -2.66 l1.56 0 z M20.64 10.4 q2.04 0 2.97 0.96 t0.95 2.9 l0 4.2 q0 0.6 0.14 1.54 l-1.5 0 q-0.1 -0.18 -0.1 -1.4 l-0.04 0 q-1.06 1.6 -3.08 1.64 q-1.54 0 -2.51 -0.77 t-0.97 -2.01 q0 -1.7 1.4 -2.49 t4.38 -0.79 l0.72 0 l0 -0.26 q0 -2.04 -2.32 -2.08 q-1.68 0 -2.78 1.02 l-0.98 -1.02 q1.44 -1.4 3.72 -1.44 z M18.18 17.3 q0 1.58 2.06 1.62 q1.22 0 1.99 -0.78 t0.77 -2.28 l0 -0.36 l-1.72 0 q-1.38 0 -2.23 0.44 t-0.87 1.36 z M31.74 10.4 q2.22 0 3.58 1.48 l-1.24 1.1 q-0.94 -1.14 -2.36 -1.14 q-1.46 0 -2.31 0.95 t-0.85 2.53 q0 1.5 0.91 2.48 t2.25 1 q1.54 0 2.38 -1.16 l1.16 1.1 q-1.3 1.48 -3.54 1.5 q-2.14 -0.02 -3.47 -1.36 t-1.37 -3.56 q0.02 -2.24 1.4 -3.58 t3.46 -1.34 z M38.62 4.880000000000001 l0 9.88 l4.26 -4.12 l2.22 0 l-4.52 4.26 l4.98 5.1 l-2.3 0 l-4.64 -4.92 l0 4.92 l-1.56 0 l0 -15.12 l1.56 0 z M57.22 10.4 q1.76 0 2.66 1.02 t0.9 2.72 l0 5.86 l-1.56 0 l0 -5.68 q0 -1.08 -0.5 -1.77 t-1.64 -0.71 q-1.44 0 -2.17 0.95 t-0.73 2.63 l0 4.58 l-1.56 0 l0 -7.28 q0 -0.1 -0.08 -2.08 l1.48 0 q0.04 1.4 0.04 1.54 l0.04 0 q0.38 -0.8 1.23 -1.29 t1.89 -0.49 z M68 10.4 q2.08 0 3.25 1.31 t1.19 3.71 l0 0.38 l-7.56 0 q0.12 1.3 0.98 2.14 t2.1 0.86 q1.9 0 2.96 -1.42 l1.18 0.92 q-0.74 0.96 -1.74 1.45 t-2.4 0.49 q-2.14 0 -3.44 -1.39 t-1.32 -3.53 q0 -2.12 1.33 -3.5 t3.47 -1.42 z M70.76 14.48 q-0.06 -1.22 -0.79 -1.93 t-2.05 -0.71 q-1.2 0 -2.02 0.68 t-1.02 1.96 l5.88 0 z M75.38000000000001 10.64 l2.14 7.2 l0.04 0 l2.42 -7.2 l1.64 0 l2.46 7.2 l0.04 0 l2.12 -7.2 l1.68 0 l-3.02 9.36 l-1.54 0 l-2.66 -7.2 l-0.04 0 l-2.36 7.2 l-1.6 0 l-3.04 -9.36 l1.72 0 z M91.16000000000001 4.880000000000001 l0 7.12 l0.04 0 q1.36 -1.58 3.36 -1.6 q2.22 0 3.56 1.39 t1.36 3.53 q0 2.08 -1.34 3.48 t-3.34 1.44 q-1.2 0 -2.17 -0.52 t-1.43 -1.38 l-0.04 0 l0 1.66 l-1.56 0 l0 -15.12 l1.56 0 z M91.16000000000001 15.32 q0 1.54 0.95 2.51 t2.37 0.97 q1.46 0 2.38 -0.97 t0.94 -2.51 q0 -1.52 -0.93 -2.5 t-2.41 -0.98 q-1.44 0 -2.36 0.97 t-0.94 2.51 z M102.82000000000002 5.84 q0.46 0 0.8 0.33 t0.34 0.81 q0 0.5 -0.32 0.82 t-0.82 0.32 t-0.82 -0.32 t-0.32 -0.82 q0 -0.48 0.34 -0.81 t0.8 -0.33 z M103.60000000000002 10.64 l0 9.36 l-1.56 0 l0 -9.36 l1.56 0 z M110.96000000000001 10.4 q2.08 0 3.25 1.31 t1.19 3.71 l0 0.38 l-7.56 0 q0.12 1.3 0.98 2.14 t2.1 0.86 q1.9 0 2.96 -1.42 l1.18 0.92 q-0.74 0.96 -1.74 1.45 t-2.4 0.49 q-2.14 0 -3.44 -1.39 t-1.32 -3.53 q0 -2.12 1.33 -3.5 t3.47 -1.42 z M113.72000000000001 14.48 q-0.06 -1.22 -0.79 -1.93 t-2.05 -0.71 q-1.2 0 -2.02 0.68 t-1.02 1.96 l5.88 0 z"></path></g><g id="SvgjsG3173" featureKey="duLK5n-0" transform="matrix(0.35001035034269656,0,0,0.35001035034269656,155.369981219175,44.13794520988948)" fill="#111111"><path d="M14.42 20 l-1.78 0 l0 -11.36 l-4.54 6.2 l-4.52 -6.2 l0 11.36 l-1.78 0 l0 -14.24 l1.88 0 l4.42 6.08 l4.42 -6.08 l1.9 0 l0 14.24 z M41.21600000000001 20 l-1.58 -4.14 l-5.82 0 l-1.58 4.14 l-1.92 0 l5.48 -14.24 l1.86 0 l5.5 14.24 l-1.94 0 z M38.93600000000001 14.1 l-2.2 -5.76 l-2.22 5.76 l4.42 0 z M70.072 20 l-5.9 -8.28 l-3.08 2.9 l0 5.38 l-1.78 0 l0 -14.24 l1.78 0 l0 6.46 l6.86 -6.46 l2.56 0 l-4.98 4.7 l6.8 9.54 l-2.26 0 z M88.58800000000001 20 l0 -14.24 l9 0 l0 1.72 l-7.2 0 l0 3.34 l6.28 0 l0 1.78 l-6.28 0 l0 5.64 l7.02 0 l0 1.76 l-8.82 0 z M132.84 20 l0 -14.24 l1.8 0 l0 12.5 l7.8 0 l0 1.74 l-9.6 0 z M159.01600000000002 20 l0 -14.24 l9 0 l0 1.72 l-7.2 0 l0 3.34 l6.28 0 l0 1.78 l-6.28 0 l0 5.64 l7.02 0 l0 1.76 l-8.82 0 z M194.21200000000002 20 l-1.58 -4.14 l-5.82 0 l-1.58 4.14 l-1.92 0 l5.48 -14.24 l1.86 0 l5.5 14.24 l-1.94 0 z M191.93200000000002 14.1 l-2.2 -5.76 l-2.22 5.76 l4.42 0 z M217.868 12.42 l5.5 7.58 l-2.06 0 l-5.44 -7.48 l-2.04 0 l0 7.48 l-1.72 0 l0 -14.24 l4.94 0 c0.9 0 1.74 0.36 2.38 1 s1 1.48 1 2.38 c0 1.58 -1.1 2.9 -2.56 3.28 z M213.828 7.48 l0 3.32 l3.22 0 c0.92 0 1.66 -0.74 1.66 -1.66 s-0.74 -1.66 -1.66 -1.66 l-3.22 0 z M248.36399999999998 20 l-7.62 -11.26 l0 11.26 l-1.8 0 l0 -14.24 l1.96 0 l7.6 11.26 l0 -11.26 l1.8 0 l0 14.24 l-1.94 0 z M268.55999999999995 20 l0 -14.24 l1.8 0 l0 14.24 l-1.8 0 z M297.83599999999996 20 l-7.62 -11.26 l0 11.26 l-1.8 0 l0 -14.24 l1.96 0 l7.6 11.26 l0 -11.26 l1.8 0 l0 14.24 l-1.94 0 z M324.05199999999996 10.84 l5.92 0 l0 6.3 c-1.42 1.9 -3.66 3.08 -6.02 3.08 c-4.1 0 -7.44 -3.34 -7.44 -7.46 c0 -4.1 3.34 -7.44 7.44 -7.44 c2.02 0 3.9 0.8 5.28 2.2 l-1.32 1.16 c-1.04 -1.04 -2.46 -1.6 -3.96 -1.6 c-3.14 0 -5.68 2.54 -5.68 5.68 c0 3.16 2.54 5.7 5.68 5.7 c1.66 0 3.18 -0.7 4.28 -1.92 l0 -3.94 l-4.18 0 l0 -1.76 z M366.08399999999995 20 l0 -14.24 l9 0 l0 1.72 l-7.2 0 l0 3.34 l6.28 0 l0 1.78 l-6.28 0 l0 5.64 l7.02 0 l0 1.76 l-8.82 0 z M401.28 20 l-1.58 -4.14 l-5.82 0 l-1.58 4.14 l-1.92 0 l5.48 -14.24 l1.86 0 l5.5 14.24 l-1.94 0 z M398.99999999999994 14.1 l-2.2 -5.76 l-2.22 5.76 l4.42 0 z M424.176 20.14 c-0.48 0 -0.96 -0.06 -1.44 -0.16 c-1.48 -0.3 -2.94 -1.04 -4.24 -2.16 l1.18 -1.34 c1.06 0.92 2.24 1.54 3.42 1.78 c1 0.22 1.98 0.14 2.76 -0.22 c0.52 -0.24 1.42 -0.84 1.42 -2.06 c0 -1.5 -1.6 -2.04 -3.16 -2.34 c-0.14 -0.02 -2.38 -0.48 -3.28 -1 c-1.2 -0.72 -1.84 -1.8 -1.84 -3.12 c0 -0.74 0.24 -1.44 0.66 -2.06 c0.42 -0.56 1 -1.02 1.68 -1.34 c1 -0.48 2.18 -0.62 3.38 -0.42 c1.3 0.22 2.62 0.84 3.78 1.8 l-1.14 1.38 c-2.06 -1.7 -4.06 -1.74 -5.26 -1.18 c-0.82 0.38 -1.3 1.08 -1.3 1.8 c0 1.36 1.16 1.88 3 2.28 c0.76 0.18 2.34 0.44 3.28 0.98 c1.3 0.72 1.98 1.84 1.98 3.22 c0 0.82 -0.22 1.58 -0.68 2.24 c-0.42 0.6 -1.06 1.06 -1.78 1.42 c-0.76 0.38 -1.54 0.5 -2.42 0.5 z M449.49199999999996 20 l0 -7.2 l-5.02 -7.04 l2.2 0 l3.74 5.22 l3.74 -5.22 l2.18 0 l-5.02 7.04 l0 7.2 l-1.82 0 z"></path></g>
			</g>
		</svg>
	